<svg width="846" height="251" viewBox="0 0 846 251" fill="none" xmlns="http://www.w3.org/2000/svg">
<path d="M8.09088 32.9091H32.3636L58 95.4545H59.0909L84.7272 32.9091H109V126H89.9091V65.4091H89.1363L65.0454 125.545H52.0454L27.9545 65.1818H27.1818V126H8.09088V32.9091Z" fill="black"/>
<path d="M169.625 96.2727V56.1818H188.989V126H170.398V113.318H169.67C168.095 117.409 165.473 120.697 161.807 123.182C158.17 125.667 153.731 126.909 148.489 126.909C143.822 126.909 139.716 125.848 136.17 123.727C132.625 121.606 129.852 118.591 127.852 114.682C125.883 110.773 124.883 106.091 124.852 100.636V56.1818H144.216V97.1818C144.246 101.303 145.352 104.561 147.534 106.955C149.716 109.348 152.64 110.545 156.307 110.545C158.64 110.545 160.822 110.015 162.852 108.955C164.883 107.864 166.519 106.258 167.761 104.136C169.034 102.015 169.655 99.3939 169.625 96.2727Z" fill="black"/>
<path d="M223.841 32.9091V126H204.477V32.9091H223.841Z" fill="black"/>
<path d="M276.489 56.1818V70.7273H234.443V56.1818H276.489ZM243.989 39.4545H263.352V104.545C263.352 106.333 263.625 107.727 264.17 108.727C264.716 109.697 265.473 110.379 266.443 110.773C267.443 111.167 268.595 111.364 269.898 111.364C270.807 111.364 271.716 111.288 272.625 111.136C273.534 110.955 274.231 110.818 274.716 110.727L277.761 125.136C276.792 125.439 275.428 125.788 273.67 126.182C271.913 126.606 269.776 126.864 267.261 126.955C262.595 127.136 258.504 126.515 254.989 125.091C251.504 123.667 248.792 121.455 246.852 118.455C244.913 115.455 243.958 111.667 243.989 107.091V39.4545Z" fill="black"/>
<path d="M289.102 126V56.1818H308.466V126H289.102Z" fill="black"/>
<path d="M545 77.5L524.591 78.0455C524.379 76.5909 523.803 75.303 522.864 74.1818C521.924 73.0303 520.697 72.1364 519.182 71.5C517.697 70.8333 515.97 70.5 514 70.5C511.424 70.5 509.227 71.0152 507.409 72.0455C505.621 73.0758 504.742 74.4697 504.773 76.2273C504.742 77.5909 505.288 78.7727 506.409 79.7727C507.561 80.7727 509.606 81.5758 512.545 82.1818L526 84.7273C532.97 86.0606 538.152 88.2727 541.545 91.3636C544.97 94.4545 546.697 98.5455 546.727 103.636C546.697 108.424 545.273 112.591 542.455 116.136C539.667 119.682 535.848 122.439 531 124.409C526.152 126.348 520.606 127.318 514.364 127.318C504.394 127.318 496.53 125.273 490.773 121.182C485.045 117.061 481.773 111.545 480.955 104.636L502.909 104.091C503.394 106.636 504.652 108.576 506.682 109.909C508.712 111.242 511.303 111.909 514.455 111.909C517.303 111.909 519.621 111.379 521.409 110.318C523.197 109.258 524.106 107.848 524.136 106.091C524.106 104.515 523.409 103.258 522.045 102.318C520.682 101.348 518.545 100.591 515.636 100.045L503.455 97.7273C496.455 96.4545 491.242 94.1061 487.818 90.6818C484.394 87.2273 482.697 82.8333 482.727 77.5C482.697 72.8333 483.939 68.8485 486.455 65.5455C488.97 62.2121 492.545 59.6667 497.182 57.9091C501.818 56.1515 507.288 55.2727 513.591 55.2727C523.045 55.2727 530.5 57.2576 535.955 61.2273C541.409 65.1667 544.424 70.5909 545 77.5ZM589.898 127.364C582.746 127.364 576.595 125.848 571.443 122.818C566.322 119.758 562.383 115.515 559.625 110.091C556.898 104.667 555.534 98.4242 555.534 91.3636C555.534 84.2121 556.913 77.9394 559.67 72.5455C562.458 67.1212 566.413 62.8939 571.534 59.8636C576.655 56.803 582.746 55.2727 589.807 55.2727C595.898 55.2727 601.231 56.3788 605.807 58.5909C610.383 60.803 614.004 63.9091 616.67 67.9091C619.337 71.9091 620.807 76.6061 621.08 82H602.807C602.292 78.5151 600.928 75.7121 598.716 73.5909C596.534 71.4394 593.67 70.3636 590.125 70.3636C587.125 70.3636 584.504 71.1818 582.261 72.8182C580.049 74.4242 578.322 76.7727 577.08 79.8636C575.837 82.9545 575.216 86.697 575.216 91.0909C575.216 95.5455 575.822 99.3333 577.034 102.455C578.277 105.576 580.019 107.955 582.261 109.591C584.504 111.227 587.125 112.045 590.125 112.045C592.337 112.045 594.322 111.591 596.08 110.682C597.867 109.773 599.337 108.455 600.489 106.727C601.67 104.97 602.443 102.864 602.807 100.409H621.08C620.777 105.742 619.322 110.439 616.716 114.5C614.14 118.53 610.58 121.682 606.034 123.955C601.489 126.227 596.11 127.364 589.898 127.364ZM654.295 127.409C649.871 127.409 645.886 126.621 642.341 125.045C638.826 123.439 636.038 121.076 633.977 117.955C631.947 114.833 630.932 110.985 630.932 106.409C630.932 102.47 631.659 99.2121 633.114 96.6364C634.568 94.0606 636.553 92 639.068 90.4545C641.583 88.9091 644.417 87.7424 647.568 86.9545C650.75 86.1364 654.038 85.5455 657.432 85.1818C661.523 84.7576 664.841 84.3788 667.386 84.0455C669.932 83.6818 671.78 83.1364 672.932 82.4091C674.114 81.6515 674.705 80.4848 674.705 78.9091V78.6364C674.705 75.2121 673.689 72.5606 671.659 70.6818C669.629 68.803 666.705 67.8636 662.886 67.8636C658.856 67.8636 655.659 68.7424 653.295 70.5C650.962 72.2576 649.386 74.3333 648.568 76.7273L633.205 74.5455C634.417 70.303 636.417 66.7576 639.205 63.9091C641.992 61.0303 645.402 58.8788 649.432 57.4545C653.462 56 657.917 55.2727 662.795 55.2727C666.159 55.2727 669.508 55.6667 672.841 56.4545C676.174 57.2424 679.22 58.5455 681.977 60.3636C684.735 62.1515 686.947 64.5909 688.614 67.6818C690.311 70.7727 691.159 74.6364 691.159 79.2727V126H675.341V116.409H674.795C673.795 118.348 672.386 120.167 670.568 121.864C668.78 123.53 666.523 124.879 663.795 125.909C661.098 126.909 657.932 127.409 654.295 127.409ZM658.568 115.318C661.871 115.318 664.735 114.667 667.159 113.364C669.583 112.03 671.447 110.273 672.75 108.091C674.083 105.909 674.75 103.53 674.75 100.955V92.7273C674.235 93.1515 673.356 93.5455 672.114 93.9091C670.902 94.2727 669.538 94.5909 668.023 94.8636C666.508 95.1364 665.008 95.3788 663.523 95.5909C662.038 95.803 660.75 95.9848 659.659 96.1364C657.205 96.4697 655.008 97.0152 653.068 97.7727C651.129 98.5303 649.598 99.5909 648.477 100.955C647.356 102.288 646.795 104.015 646.795 106.136C646.795 109.167 647.902 111.455 650.114 113C652.326 114.545 655.144 115.318 658.568 115.318ZM721.977 32.9091V126H708.386V32.9091H721.977ZM770.216 127.455C763.489 127.455 757.686 125.97 752.807 123C747.958 120 744.216 115.818 741.58 110.455C738.973 105.061 737.67 98.7879 737.67 91.6364C737.67 84.4848 738.973 78.1818 741.58 72.7273C744.216 67.2424 747.883 62.9697 752.58 59.9091C757.307 56.8182 762.822 55.2727 769.125 55.2727C772.761 55.2727 776.352 55.8788 779.898 57.0909C783.443 58.303 786.67 60.2727 789.58 63C792.489 65.697 794.807 69.2727 796.534 73.7273C798.261 78.1818 799.125 83.6667 799.125 90.1818V94.7273H745.307V85.4545H788.216C788.216 81.5151 787.428 78 785.852 74.9091C784.307 71.8182 782.095 69.3788 779.216 67.5909C776.367 65.803 773.004 64.9091 769.125 64.9091C764.852 64.9091 761.155 65.9697 758.034 68.0909C754.943 70.1818 752.564 72.9091 750.898 76.2727C749.231 79.6364 748.398 83.2424 748.398 87.0909V93.2727C748.398 98.5455 749.307 103.015 751.125 106.682C752.973 110.318 755.534 113.091 758.807 115C762.08 116.879 765.883 117.818 770.216 117.818C773.034 117.818 775.58 117.424 777.852 116.636C780.155 115.818 782.14 114.606 783.807 113C785.473 111.364 786.761 109.333 787.67 106.909L798.034 109.818C796.943 113.333 795.11 116.424 792.534 119.091C789.958 121.727 786.777 123.788 782.989 125.273C779.201 126.727 774.943 127.455 770.216 127.455Z" fill="black"/>
<mask id="mask0_303_2" style="mask-type:alpha" maskUnits="userSpaceOnUse" x="188" y="0" width="310" height="251">
<circle cx="298.5" cy="26.5" r="19" stroke="black" stroke-width="15"/>
<circle cx="214.5" cy="158.5" r="19" fill="white" stroke="black" stroke-width="15"/>
<circle cx="459.5" cy="26.5" r="19" fill="white" stroke="black" stroke-width="15"/>
<path d="M471.5 243.5C481.993 243.5 490.5 234.993 490.5 224.5C490.5 214.007 481.993 205.5 471.5 205.5C461.007 205.5 452.5 214.007 452.5 224.5C452.5 234.993 461.007 243.5 471.5 243.5Z" fill="white" stroke="black" stroke-width="15"/>
<line x1="319.5" y1="26.5" x2="334.5" y2="26.5" stroke="black" stroke-width="15" stroke-linecap="round"/>
<line x1="336.603" y1="26.7055" x2="362.705" y2="51.3975" stroke="black" stroke-width="15" stroke-linecap="round"/>
<path d="M471 213L471 160L432 121" stroke="black" stroke-width="15" stroke-linecap="round"/>
<line x1="385.5" y1="45.5" x2="385.5" y2="36.5" stroke="black" stroke-width="15" stroke-linecap="round"/>
<line x1="409.5" y1="48.537" x2="409.5" y2="36.463" stroke="black" stroke-width="15" stroke-linecap="round"/>
<line x1="410.5" y1="139.574" x2="410.5" y2="127.5" stroke="black" stroke-width="15" stroke-linecap="round"/>
<line x1="385.5" y1="139.574" x2="385.5" y2="127.5" stroke="black" stroke-width="15" stroke-linecap="round"/>
<line x1="345.49" y1="76" x2="355.51" y2="76" stroke="black" stroke-width="15" stroke-linecap="round"/>
<line x1="439.5" y1="76.5" x2="449.52" y2="76.5" stroke="black" stroke-width="15" stroke-linecap="round"/>
<line x1="345.5" y1="100.5" x2="357.5" y2="100.5" stroke="black" stroke-width="15" stroke-linecap="round"/>
<line x1="437.5" y1="100.5" x2="449.5" y2="100.5" stroke="black" stroke-width="15" stroke-linecap="round"/>
<line x1="236.5" y1="158.5" x2="328.5" y2="158.5" stroke="black" stroke-width="15" stroke-linecap="round"/>
<line x1="330.322" y1="157.62" x2="362.169" y2="125.773" stroke="black" stroke-width="15" stroke-linecap="round"/>
<line x1="432" y1="51.8471" x2="463.847" y2="20" stroke="black" stroke-width="15" stroke-linecap="round"/>
<mask id="path-21-inside-1_303_2" fill="white">
<path fill-rule="evenodd" clip-rule="evenodd" d="M374 45C362.954 45 354 53.9543 354 65V112C354 123.046 362.954 132 374 132H421C432.046 132 441 123.046 441 112V65C441 53.9543 432.046 45 421 45H374ZM382 58C373.716 58 367 64.7157 367 73V105C367 113.284 373.716 120 382 120H414C422.284 120 429 113.284 429 105V73C429 64.7157 422.284 58 414 58H382Z"/>
</mask>
<path fill-rule="evenodd" clip-rule="evenodd" d="M374 45C362.954 45 354 53.9543 354 65V112C354 123.046 362.954 132 374 132H421C432.046 132 441 123.046 441 112V65C441 53.9543 432.046 45 421 45H374ZM382 58C373.716 58 367 64.7157 367 73V105C367 113.284 373.716 120 382 120H414C422.284 120 429 113.284 429 105V73C429 64.7157 422.284 58 414 58H382Z" fill="white"/>
<path d="M369 65C369 62.2386 371.239 60 374 60V30C354.67 30 339 45.67 339 65H369ZM369 112V65H339V112H369ZM374 117C371.239 117 369 114.761 369 112H339C339 131.33 354.67 147 374 147V117ZM421 117H374V147H421V117ZM426 112C426 114.761 423.761 117 421 117V147C440.33 147 456 131.33 456 112H426ZM426 65V112H456V65H426ZM421 60C423.761 60 426 62.2386 426 65H456C456 45.67 440.33 30 421 30V60ZM374 60H421V30H374V60ZM382 73V43C365.431 43 352 56.4315 352 73H382ZM382 105V73H352V105H382ZM382 105H352C352 121.569 365.431 135 382 135V105ZM414 105H382V135H414V105ZM414 105V135C430.569 135 444 121.569 444 105H414ZM414 73V105H444V73H414ZM414 73H444C444 56.4315 430.569 43 414 43V73ZM382 73H414V43H382V73Z" fill="black" mask="url(#path-21-inside-1_303_2)"/>
<circle cx="411.5" cy="74.5" r="6.5" fill="black"/>
</mask>
<g mask="url(#mask0_303_2)">
<rect x="90" y="-90" width="631" height="427" fill="url(#paint0_linear_303_2)"/>
</g>
<circle cx="410.5" cy="75.5" r="7.5" fill="#285181"/>
<defs>
<linearGradient id="paint0_linear_303_2" x1="537" y1="253" x2="257" y2="-42.5" gradientUnits="userSpaceOnUse">
<stop stop-color="#4FA0FF"/>
<stop offset="1"/>
</linearGradient>
</defs>
</svg>
